<?xml version="1.0" standalone="no"?>
<!DOCTYPE svg PUBLIC "-//W3C//DTD SVG 20010904//EN"
 "http://www.w3.org/TR/2001/REC-SVG-20010904/DTD/svg10.dtd">
<svg version="1.0" xmlns="http://www.w3.org/2000/svg"
 width="624.000000pt" height="624.000000pt" viewBox="0 0 624.000000 624.000000"
 preserveAspectRatio="xMidYMid meet">
<metadata>
Created by potrace 1.11, written by Peter Selinger 2001-2013
</metadata>
<g transform="translate(0.000000,624.000000) scale(0.100000,-0.100000)"
fill="#000000" stroke="none">
<path d="M2770 4075 c-8 -2 -49 -9 -90 -15 -162 -26 -380 -120 -571 -245 -53
-34 -172 -118 -264 -185 -367 -268 -494 -338 -944 -525 -485 -201 -634 -285
-799 -450 -50 -51 -92 -97 -92 -102 0 -6 49 -13 112 -17 388 -25 867 -144
1222 -305 38 -18 72 -28 76 -24 3 4 30 71 59 148 109 287 282 607 465 858 230
316 458 545 836 839 32 25 30 31 -10 23z"/>
<path d="M2999 4002 c-615 -414 -1063 -965 -1340 -1647 -31 -77 -56 -141 -54
-143 2 -2 77 22 166 53 282 97 578 163 894 201 211 26 689 26 900 0 320 -38
587 -98 887 -200 l187 -63 -28 77 c-224 612 -655 1190 -1186 1590 -114 85
-297 211 -307 210 -1 0 -55 -36 -119 -78z"/>
<path d="M3434 4057 c441 -335 765 -686 1015 -1099 117 -192 264 -500 320
-668 12 -36 25 -71 29 -78 7 -9 36 -1 123 37 386 165 836 270 1259 293 l45 3
-88 91 c-155 162 -339 272 -707 424 -96 40 -224 93 -285 118 -142 59 -328 154
-435 222 -47 30 -193 131 -325 225 -284 203 -410 282 -543 340 -136 60 -251
92 -392 109 l-45 5 29 -22z"/>
</g>
</svg>
