<svg height="71" viewBox="0 0 51 71" width="51" xmlns="http://www.w3.org/2000/svg"><path d="m43.2887802 0s-5.8478575 5.66747372-12.1724018 7.95241308c-46.835066 16.92220042-27.08272406 49.89885222-26.43833312 50.00753002 0 0 2.62628948-4.568591 6.17398452-7.1744134 22.5123049-16.5320417 27.0878802-35.5612279 27.0878802-35.5612279s-5.0517466 22.8981957-25.0798141 37.1460706c-4.42346867 3.14522-7.41868131 10.8894197-8.68658075 18.6296276 0 0 3.13558906-1.2655049 4.48392458-1.608278.52579929-3.4274734 1.62509237-6.7094421 3.48362977-9.6412981 27.9916259 3.3290968 37.1594051-19.2018604 38.3570519-27.0582146 2.8267352-18.5550725-7.2093412-32.6922093-7.2093412-32.6922093z" fill="#e93840" fill-rule="evenodd"/></svg>