<svg height="48" viewBox="0 0 156 48" width="156" xmlns="http://www.w3.org/2000/svg"><g fill="#333" fill-rule="evenodd"><path d="m78.01 39.7422924c13.0170336.0050926 25.91498 2.4753182 38.01 7.2797076-6.80752-19.6106009-20.2486314-36.2385388-38.01-47.022-17.7297882 10.7651768-31.1650937 27.3438129-38.01 46.9028381 12.1024788-4.7653295 25.0004836-7.1951309 38.01-7.1605457"/><path d="m120.283 18.5273437c12.422281 7.0515685 27.232099 9.1373563 35.283 19.8791661-12.306688.4701995-24.390217 3.4234648-35.521033 8.6814902-6.306469-19.0445872-18.595-35.5560113-35.044967-47.088 14.5880108 1.02200929 22.860719 11.4757753 35.283 18.5273437z"/><path d="m35.283 18.5273437c12.422281 7.0515685 27.2320989 9.1373563 35.283 19.8791661-12.3066882.4701995-24.3902168 3.4234648-35.5210331 8.6814902-6.3064693-19.0445872-18.5949995-35.5560113-35.0449669-47.088 14.5880108 1.02200929 22.860719 11.4757753 35.283 18.5273437z" transform="matrix(-1 0 0 1 70.566 0)"/></g></svg>