<svg enable-background="new 0 0 486.3 486.3" viewBox="0 0 486.3 486.3" xmlns="http://www.w3.org/2000/svg"><path d="m243.15 0v104.4c44.11 0 80 35.88 80 80 0 44.11-35.89 80-80 80v221.9l146.43-184.1c26.29-33.25 40.19-73.21 40.19-115.58 0-102.9-83.72-186.62-186.62-186.62z" fill="#cd2a00"/><path d="m323.15 184.4c0-44.12-35.89-80-80-80v160c44.11 0 80-35.89 80-80z" fill="#d8d7da"/><path d="m163.15 184.4c0-44.12 35.89-80 80-80v-104.4c-102.9 0-186.62 83.72-186.62 186.62 0 42.37 13.9 82.33 40.23 115.62l146.39 184.06v-221.9c-44.11 0-80-35.89-80-80z" fill="#ff3501"/><path d="m163.15 184.4c0 44.11 35.89 80 80 80v-160c-44.11 0-80 35.88-80 80z" fill="#fff"/></svg>